# Blender v2.68 (sub 0) OBJ File: ''
# www.blender.org
mt asdf
mtllib sword.mtl
o Ninja_Sword
v -0.005510 -0.026843 1.787180
v -0.027509 -0.026942 1.787030
v -0.005819 0.041356 1.787565
v -0.016841 0.046306 1.787520
v -0.027818 0.041257 1.787415
v -0.006061 -0.005218 1.853300
v -0.028060 -0.005317 1.853150
v -0.028684 0.040538 1.913910
v -0.006685 0.040637 1.914060
v -0.017061 -0.030111 1.869585
v -0.016359 -0.059891 1.786920
v -0.017948 0.045387 1.949210
v 0.008430 0.062592 0.115665
v -0.019289 0.062467 0.115474
v -0.018899 -0.023462 0.114989
v 0.008820 -0.023337 0.115179
v -0.004851 -0.064979 0.114849
v 0.008938 0.063014 0.041418
v -0.018781 0.062889 0.041227
v -0.018391 -0.023040 0.040742
v 0.009328 -0.022916 0.040932
v -0.004343 -0.064557 0.040602
v -0.005430 0.062530 0.115570
v -0.004921 0.062952 0.041323
v -0.004917 -0.050394 0.114983
v 0.005932 -0.017345 0.115245
v 0.005623 0.050853 0.115631
v -0.005399 0.055804 0.115584
v -0.016376 0.050754 0.115480
v -0.016067 -0.017444 0.115094
v -0.004089 -0.120427 0.040217
v -0.082614 -0.120996 0.039677
v 0.074438 -0.120289 0.040755
v 0.073360 0.117402 0.042098
v -0.083693 0.116695 0.041019
v -0.005166 0.117048 0.041559
v -0.083579 0.116789 0.024520
v -0.082501 -0.120902 0.023177
v -0.003976 -0.120333 0.023718
v 0.074551 -0.120195 0.024256
v 0.073472 0.117495 0.025599
v -0.005054 0.117142 0.025059
v -0.015240 0.044917 0.024382
v -0.014861 -0.046082 0.023910
v -0.004294 -0.057442 0.023918
v 0.006170 -0.045988 0.024055
v 0.005791 0.045012 0.024526
v -0.004772 0.055504 0.024513
v -0.011030 0.048412 -0.590745
v -0.010652 -0.042588 -0.591220
v -0.000084 -0.053947 -0.591210
v 0.010380 -0.042493 -0.591075
v 0.010001 0.048506 -0.590600
v -0.000563 0.058998 -0.590615
v -0.015805 0.055930 -0.591740
v -0.015352 -0.051193 -0.592305
v -0.000028 -0.064787 -0.592275
v 0.015172 -0.051056 -0.592095
v 0.014720 0.056068 -0.591530
v -0.000599 0.068520 -0.591565
v -0.015519 0.056168 -0.633540
v -0.015066 -0.050956 -0.634100
v 0.000258 -0.064549 -0.634075
v 0.015458 -0.050818 -0.633890
v 0.015006 0.056305 -0.633330
v -0.000313 0.068758 -0.633365
v -0.004571 0.018090 -0.646900
v -0.004465 -0.005344 -0.647030
v 0.000122 -0.007025 -0.647010
v 0.004693 -0.005302 -0.646970
v 0.004586 0.018131 -0.646835
v 0.000001 0.019608 -0.646860
v -0.000006 0.006649 -0.649205
v -0.083634 0.116743 0.032499
v -0.082565 -0.120955 0.032499
v -0.004036 -0.120383 0.032499
v 0.074495 -0.120242 0.032499
v 0.073426 0.117456 0.032499
v -0.005104 0.117100 0.032499
vt 0.612160 0.970824
vt 0.052666 0.973824
vt 0.612160 0.947046
vt 0.052666 0.958046
vt 0.052666 0.950411
vt 0.612160 0.939412
vt 0.612160 0.971824
vt 0.022592 0.973824
vt 0.036975 0.963136
vt 0.033053 0.957410
vt 0.014224 0.973824
vt 0.614170 0.966802
vt 0.614170 0.946825
vt 0.614170 0.938552
vt 0.633626 0.966802
vt 0.633626 0.946825
vt 0.633626 0.938552
vt 0.910782 0.873043
vt 0.858800 0.901612
vt 0.910782 0.827661
vt 0.858800 0.776082
vt 0.985047 0.901612
vt 0.933065 0.827661
vt 0.985047 0.776082
vt 0.933065 0.873043
vt 0.921924 0.805702
vt 0.921924 0.776196
vt 0.614170 0.971802
vt 0.633626 0.971802
vt 0.921924 0.901612
vt 0.921924 0.873043
vt 0.913470 0.863493
vt 0.913470 0.819395
vt 0.921924 0.813371
vt 0.930377 0.819395
vt 0.930377 0.863493
vt 0.921924 0.869059
vt 0.643509 0.968974
vt 0.915394 0.968974
vt 0.915394 0.941703
vt 0.643509 0.941703
vt 0.915474 0.934973
vt 0.643499 0.934973
vt 0.915474 0.975490
vt 0.643499 0.975490
vt 0.917863 0.970188
vt 0.917863 0.940254
vt 0.917896 0.932822
vt 0.917896 0.977295
vt 0.930434 0.969541
vt 0.930434 0.940367
vt 0.932282 0.932822
vt 0.932282 0.977295
vt 0.934796 0.959364
vt 0.934796 0.951081
vt 0.936796 0.950479
vt 0.936796 0.959894
vt 0.937660 0.955308
vt 0.850584 0.909042
vt 0.850584 0.768448
vt 0.921914 0.768575
vt 0.993243 0.768448
vt 0.993243 0.909042
vt 0.921914 0.909042
vn 0.999966 0.004499 0.006869
vn -0.999966 -0.004499 -0.006869
vn -0.999966 -0.004500 -0.006869
vn 0.950087 -0.311951 0.004730
vn 0.950087 -0.311950 0.004730
vn -0.947217 -0.320486 -0.008303
vn -0.947216 -0.320489 -0.008303
vn -0.417921 0.908481 0.002301
vn -0.417928 0.908477 0.002301
vn 0.409655 0.912206 0.007986
vn 0.409667 0.912200 0.007986
vn -0.999966 -0.004499 -0.006868
vn 0.999966 0.004498 0.006869
vn -0.942715 -0.319316 0.096570
vn -0.933953 -0.338697 0.114087
vn 0.942977 -0.310523 0.119873
vn 0.934491 -0.335974 0.117674
vn -0.417922 0.908480 0.002301
vn -0.937849 -0.281571 0.202873
vn -0.884214 -0.343820 0.316154
vn 0.882851 -0.335861 0.328285
vn 0.937471 -0.273129 0.215751
vn 0.006861 0.005681 -0.999960
vn -0.025034 -0.005756 0.999670
vn -0.025006 -0.005757 0.999671
vn 0.011476 -0.005598 0.999919
vn 0.011406 -0.005601 0.999919
vn -0.017521 -0.009300 0.999803
vn -0.017503 -0.009291 0.999804
vn 0.003897 -0.009204 0.999950
vn 0.003912 -0.009212 0.999950
vn 0.999966 0.004500 0.006869
vn -0.947216 -0.320487 -0.008303
vn -0.947216 -0.320489 -0.008302
vn 0.950087 -0.311950 0.004731
vn 0.950086 -0.311952 0.004730
vn -0.007915 -0.005686 0.999953
vn -0.007914 -0.005685 0.999952
vn -0.005773 -0.005676 0.999967
vn -0.005772 -0.005676 0.999967
vn -0.007554 -0.005921 0.999954
vn -0.006835 -0.006919 0.999953
vn -0.006841 -0.006919 0.999953
vn -0.006130 -0.005914 0.999964
vn -0.006900 0.002050 0.999974
vn -0.008695 -0.001693 0.999961
vn -0.006863 0.002051 0.999974
vn -0.005049 -0.001646 0.999986
vn -0.004548 0.999974 0.005653
vn -0.004548 0.999974 0.005646
vn -0.004512 0.999974 0.005653
vn -0.006850 -0.004401 0.999967
vn -0.006853 -0.004400 0.999967
vn -0.006849 -0.004401 0.999967
vn -0.006845 -0.004400 0.999967
vn 0.003438 0.005195 -0.999981
vn 0.004564 0.005670 -0.999973
vn 0.005713 0.004632 -0.999973
vn 0.006861 0.003217 -0.999971
vn 0.006848 0.003217 -0.999971
vn 0.007980 0.004639 -0.999957
vn 0.010254 0.005224 -0.999934
vn 0.009121 0.005691 -0.999942
vn 0.008252 0.007094 -0.999941
vn 0.006829 0.008890 -0.999937
vn 0.006828 0.008890 -0.999937
vn 0.005423 0.007083 -0.999960
vn -0.999968 -0.004128 -0.006867
vn -0.732138 -0.681099 -0.008880
vn -0.732144 -0.681092 -0.008880
vn 0.738295 -0.674477 0.001221
vn 0.738298 -0.674474 0.001221
vn 0.999968 0.004128 0.006867
vn 0.999968 0.004129 0.006867
vn 0.704657 0.709493 0.008853
vn 0.704670 0.709480 0.008853
vn -0.711083 0.703108 -0.000873
vn -0.711072 0.703118 -0.000872
vn -0.213064 -0.005988 0.977020
vn -0.214350 -0.006056 0.976738
vn -0.085405 -0.078575 0.993243
vn -0.088738 -0.097851 0.991237
vn 0.075971 -0.097111 0.992370
vn 0.072443 -0.077900 0.994326
vn 0.199938 -0.004282 0.979799
vn 0.200774 -0.004319 0.979628
vn 0.074113 0.076044 0.994346
vn 0.078423 0.099264 0.991966
vn -0.092954 0.098493 0.990787
vn -0.088462 0.075280 0.993231
vn -0.999968 -0.004185 -0.006867
vn -0.999968 -0.004184 -0.006868
vn -0.663560 -0.748071 -0.008792
vn -0.663561 -0.748071 -0.008792
vn 0.670326 -0.742066 0.000372
vn 0.670325 -0.742067 0.000371
vn 0.999968 0.004185 0.006867
vn 0.999968 0.004184 0.006868
vn 0.630726 0.775956 0.008725
vn 0.630727 0.775956 0.008725
vn -0.637751 0.770243 0.000013
vn -0.637751 0.770242 0.000012
vn -0.773477 0.000007 -0.633825
vn -0.773381 0.000049 -0.633941
vn -0.088403 -0.252590 -0.963526
vn -0.189885 -0.215819 -0.957792
vn 0.103412 -0.252041 -0.962175
vn 0.205165 -0.214253 -0.954988
vn 0.781849 0.007140 -0.623426
vn 0.783163 0.006556 -0.621782
vn 0.213445 0.259938 -0.941739
vn 0.103855 0.306401 -0.946220
vn -0.202800 0.258066 -0.944603
vn -0.093209 0.305667 -0.947565
vn -0.444795 0.002950 -0.895627
vn -0.053899 -0.158747 -0.985847
vn 0.067983 -0.157503 -0.985176
vn 0.444382 0.007178 -0.895809
vn 0.062592 0.177683 -0.982095
vn -0.050463 0.177862 -0.982761
vn -0.999966 -0.004499 -0.006892
vn -0.999966 -0.004498 -0.006922
vn -0.999966 -0.004499 -0.006856
vn -0.999967 -0.004499 -0.006838
vn 0.007284 -0.999958 -0.005586
vn 0.007284 -0.999958 -0.005592
vn 0.007285 -0.999958 -0.005644
vn 0.007284 -0.999958 -0.005636
vn 0.001795 -0.999982 -0.005680
vn 0.001790 -0.999983 -0.005624
vn 0.001795 -0.999982 -0.005682
vn 0.001796 -0.999982 -0.005689
vn 0.999966 0.004499 0.006900
vn 0.999966 0.004501 0.006868
vn 0.999967 0.004499 0.006820
vn 0.999967 0.004499 0.006836
vn -0.004540 0.999974 0.005646
vn -0.004540 0.999974 0.005653
vn -0.004540 0.999974 0.005613
vn -0.004540 0.999974 0.005621
vn -0.004540 0.999974 0.005661
vn -0.004540 0.999974 0.005671
vn -0.004534 0.999974 0.005613
usemtl Sword
s off
f 27/1/1 3/2/1 26/3/1
f 3/2/1 1/4/1 26/3/1
f 5/2/2 30/3/2 2/4/2
f 5/2/3 29/1/3 30/3/3
f 26/3/4 1/4/4 11/5/4
f 25/6/5 26/3/5 11/5/5
f 2/4/6 30/3/6 25/6/6
f 2/4/7 25/6/7 11/5/7
f 4/2/8 28/7/8 5/2/8
f 28/7/9 29/1/9 5/2/9
f 28/7/10 4/2/10 3/2/10
f 27/1/11 28/7/11 3/2/11
f 8/8/3 5/2/3 7/9/3
f 7/9/12 5/2/12 2/4/12
f 6/9/1 1/4/1 3/2/1
f 3/2/13 9/8/13 6/9/13
f 7/9/14 2/4/14 11/5/14
f 10/10/15 7/9/15 11/5/15
f 1/4/16 10/10/16 11/5/16
f 1/4/17 6/9/17 10/10/17
f 4/2/10 12/11/10 9/8/10
f 3/2/10 4/2/10 9/8/10
f 12/11/18 4/2/18 8/8/18
f 4/2/8 5/2/8 8/8/8
f 8/8/19 7/9/19 10/10/19
f 12/11/20 8/8/20 10/10/20
f 9/8/21 12/11/21 10/10/21
f 6/9/22 9/8/22 10/10/22
f 28/7/23 27/1/23 29/1/23
f 29/1/24 14/12/24 15/13/24
f 30/3/25 29/1/25 15/13/25
f 13/12/26 27/1/26 16/13/26
f 27/1/27 26/3/27 16/13/27
f 25/6/28 15/13/28 17/14/28
f 30/3/29 15/13/29 25/6/29
f 16/13/30 25/6/30 17/14/30
f 16/13/31 26/3/31 25/6/31
f 14/12/2 19/15/2 20/16/2
f 14/12/3 20/16/3 15/13/3
f 18/15/1 13/12/1 21/16/1
f 21/16/32 13/12/32 16/13/32
f 15/13/33 20/16/33 22/17/33
f 15/13/34 22/17/34 17/14/34
f 22/17/35 21/16/35 17/14/35
f 21/16/36 16/13/36 17/14/36
f 19/18/37 35/19/37 20/20/37
f 20/20/38 35/19/38 32/21/38
f 34/22/39 21/23/39 33/24/39
f 34/22/40 18/25/40 21/23/40
f 22/26/41 20/20/41 32/21/41
f 31/27/42 22/26/42 32/21/42
f 33/24/43 22/26/43 31/27/43
f 21/23/44 22/26/44 33/24/44
f 23/28/45 14/12/45 28/7/45
f 28/7/46 14/12/46 29/1/46
f 13/12/47 23/28/47 28/7/47
f 13/12/48 28/7/48 27/1/48
f 24/29/49 19/15/49 14/12/49
f 23/28/49 24/29/49 14/12/49
f 13/12/50 18/15/50 23/28/50
f 18/15/51 24/29/51 23/28/51
f 36/30/52 35/19/52 19/18/52
f 24/31/53 36/30/53 19/18/53
f 34/22/54 36/30/54 18/25/54
f 18/25/55 36/30/55 24/31/55
f 37/19/56 43/32/56 44/33/56
f 37/19/57 44/33/57 38/21/57
f 44/33/58 45/34/58 38/21/58
f 45/34/59 39/27/59 38/21/59
f 45/34/60 40/24/60 39/27/60
f 45/34/61 46/35/61 40/24/61
f 47/36/62 41/22/62 46/35/62
f 46/35/63 41/22/63 40/24/63
f 48/37/64 41/22/64 47/36/64
f 42/30/65 41/22/65 48/37/65
f 37/19/66 42/30/66 48/37/66
f 37/19/67 48/37/67 43/32/67
f 43/38/68 49/39/68 50/40/68
f 43/38/68 50/40/68 44/41/68
f 44/41/69 50/40/69 51/42/69
f 44/41/70 51/42/70 45/43/70
f 51/42/71 52/40/71 45/43/71
f 52/40/72 46/41/72 45/43/72
f 53/39/73 47/38/73 52/40/73
f 52/40/74 47/38/74 46/41/74
f 53/39/75 54/44/75 47/38/75
f 54/44/76 48/45/76 47/38/76
f 48/45/77 54/44/77 43/38/77
f 54/44/78 49/39/78 43/38/78
f 49/39/79 55/46/79 50/40/79
f 50/40/80 55/46/80 56/47/80
f 50/40/81 56/47/81 51/42/81
f 51/42/82 56/47/82 57/48/82
f 58/47/83 51/42/83 57/48/83
f 58/47/84 52/40/84 51/42/84
f 59/46/85 53/39/85 52/40/85
f 59/46/86 52/40/86 58/47/86
f 59/46/87 54/44/87 53/39/87
f 60/49/88 54/44/88 59/46/88
f 54/44/89 60/49/89 55/46/89
f 54/44/90 55/46/90 49/39/90
f 55/46/91 61/50/91 62/51/91
f 55/46/92 62/51/92 56/47/92
f 56/47/93 62/51/93 57/48/93
f 62/51/94 63/52/94 57/48/94
f 63/52/95 64/51/95 57/48/95
f 64/51/96 58/47/96 57/48/96
f 65/50/97 59/46/97 64/51/97
f 64/51/98 59/46/98 58/47/98
f 65/50/99 66/53/99 59/46/99
f 66/53/100 60/49/100 59/46/100
f 60/49/101 66/53/101 55/46/101
f 66/53/102 61/50/102 55/46/102
f 61/50/103 67/54/103 68/55/103
f 61/50/104 68/55/104 62/51/104
f 68/55/105 69/56/105 62/51/105
f 62/51/106 69/56/106 63/52/106
f 69/56/107 70/55/107 64/51/107
f 69/56/108 64/51/108 63/52/108
f 71/54/109 65/50/109 70/55/109
f 70/55/110 65/50/110 64/51/110
f 66/53/111 65/50/111 72/57/111
f 72/57/112 65/50/112 71/54/112
f 61/50/113 66/53/113 72/57/113
f 61/50/114 72/57/114 67/54/114
f 67/54/115 73/58/115 68/55/115
f 68/55/116 73/58/116 69/56/116
f 73/58/117 70/55/117 69/56/117
f 73/58/118 71/54/118 70/55/118
f 72/57/119 71/54/119 73/58/119
f 67/54/120 72/57/120 73/58/120
f 35/19/121 74/59/121 75/60/121
f 35/19/122 75/60/122 32/21/122
f 74/59/123 37/19/123 38/21/123
f 74/59/124 38/21/124 75/60/124
f 76/61/125 31/27/125 75/60/125
f 75/60/126 31/27/126 32/21/126
f 39/27/127 76/61/127 38/21/127
f 38/21/128 76/61/128 75/60/128
f 77/62/129 33/24/129 76/61/129
f 76/61/130 33/24/130 31/27/130
f 39/27/131 77/62/131 76/61/131
f 40/24/132 77/62/132 39/27/132
f 78/63/133 34/22/133 77/62/133
f 77/62/134 34/22/134 33/24/134
f 40/24/135 78/63/135 77/62/135
f 41/22/136 78/63/136 40/24/136
f 34/22/137 78/63/137 79/64/137
f 34/22/138 79/64/138 36/30/138
f 78/63/139 42/30/139 79/64/139
f 78/63/140 41/22/140 42/30/140
f 36/30/141 74/59/141 35/19/141
f 36/30/138 79/64/138 74/59/138
f 79/64/142 37/19/142 74/59/142
f 79/64/143 42/30/143 37/19/143